<svg width="1440" height="1350" fill="none" xmlns="http://www.w3.org/2000/svg"><g clip-path="url(#a)"><path fill="#FCEE0A" d="M0 0h1440v766H0z"/><path d="M919 10v345.5l96 96v313h272.5V723H1439" stroke="#2FB2FF" stroke-width="2" stroke-linecap="round" style="mix-blend-mode:multiply" opacity=".3"/><path d="M-1 111a1 1 0 0 1 0-2v2Zm285.5-1v-1h.371l.281.242-.652.758Zm286 246v1h-.371l-.281-.242.652-.758Zm512.5-1h1v2h-1v-2ZM-1 109h285.5v2H-1v-2Zm286.152.242 286 246-1.304 1.516-286-246 1.304-1.516ZM570.5 355H1083v2H570.5v-2ZM1083 511c.55 0 1-.448 1-1s-.45-1-1-1v2Zm-285.5-1v-1h-.371l-.281.242.652.758Zm-286 246v1h.371l.281-.242-.652-.758ZM-1 755h-1v2h1v-2Zm1084-246H797.5v2H1083v-2Zm-286.152.242-286 246 1.304 1.516 286-246-1.304-1.516ZM511.5 755H-1v2h512.5v-2ZM1440.5 159.5c.55 0 1-.448 1-1s-.45-1-1-1v2Zm-291-1v-1h-1v1h1Zm0 251.5h-1v.449l.34.299.66-.748Zm89.5 79.5h1v-.449l-.34-.299-.66.748Zm-1 273v1h2v-1h-2Zm202.5-605h-291v2h291v-2Zm-292 1V410h2V158.5h-2Zm.34 252.248 89.5 79.5 1.32-1.496-89.5-79.5-1.32 1.496ZM1238 489.5v273h2v-273h-2Z" fill="#2FB2FF" style="mix-blend-mode:multiply" opacity=".3"/><path fill="#FF003C" d="M99 343h8v8h-8zM911 416h8v8h-8zM733 635h8v8h-8zM819 253h8v8h-8zM239 723h8v8h-8zM1315 383h8v8h-8zM59 597h8v8h-8zM1081 617h8v8h-8zM741 30h8v8h-8zM22 101h8v8h-8zM1422 139h18v20.25h-18zM1086 296h18v20.25h-18zM1037 731h8v8h-8z"/><path d="M172 351v7h27.19l4.213-7H172Z" fill="#E70D0D"/></g><g clip-path="url(#b)"><path fill="#FCEE0A" d="M0 766h1440v584H0z"/><path d="M919 1350.5V1175l96-96V766" stroke="#2FB2FF" stroke-width="2" stroke-linecap="round" style="mix-blend-mode:multiply" opacity=".3"/><path d="M-1 877a1 1 0 0 1 0-2v2Zm285.5-1v-1h.371l.281.242-.652.758Zm286 246v1h-.371l-.281-.24.652-.76Zm512.5-1h1v2h-1v-2ZM-1 875h285.5v2H-1v-2Zm286.152.242 286 245.998-1.304 1.52-286-246.002 1.304-1.516ZM570.5 1121H1083v2H570.5v-2Z" fill="#2FB2FF" style="mix-blend-mode:multiply" opacity=".3"/><path d="M2 740a1 1 0 0 0-2 0h2Zm-1 291H0v1h1v-1Zm602.5 0v1h.414l.293-.29-.707-.71ZM743 891.5v-1h-.414l-.293.293.707.707Zm273 1h1v-2h-1v2ZM0 740v291h2V740H0Zm1 292h602.5v-2H1v2Zm603.207-.29 139.5-139.503-1.414-1.414-139.5 139.497 1.414 1.42ZM743 892.5h273v-2H743v2Z" fill="#2FB2FF" style="mix-blend-mode:multiply" opacity=".3"/><path fill="#FF003C" d="M99 1109h8v8h-8zM911 1182h8v8h-8zM725 1298h8v8h-8zM1315 1149h8v8h-8zM1083 878h8v8h-8zM741 796h8v8h-8zM22 867h8v8h-8zM1422 905h18v20.25h-18zM67 1296h18v20.25H67z"/></g><defs><clipPath id="a"><path fill="#fff" d="M0 0h1440v766H0z"/></clipPath><clipPath id="b"><path fill="#fff" transform="translate(0 766)" d="M0 0h1440v584H0z"/></clipPath></defs></svg>
