<svg width="297" height="82" fill="none" xmlns="http://www.w3.org/2000/svg"><path fill-rule="evenodd" clip-rule="evenodd" d="M294.713 2h-.882v3.602h2.932v-.9h-2.05V2Zm2.05 4.503h-3.814V2H1.763v25.216H4.41v2.701H1.763v1.802h1.764v-1.801h.883v4.502H1.763v26.915L19.374 79h118.001v-7.247h23.776V79h109.582l-.536-.547 26.566-27.113V6.503Zm0 49.931L274.652 79h4.499l17.612-17.665v-4.9Zm-77.052 20.313h.882v1.801h-.882v-1.8Zm4.412-2.702h-2.647v4.503h2.647v-4.503Zm-7.941 0h2.647v4.503h-2.647v-4.503Z" fill="#8BE66E"/><path fill-rule="evenodd" clip-rule="evenodd" d="M291.968 0h-.879v3.602h3.517v.9h-4.397V0H0v25.216h2.638v2.701H0v1.802h1.759v-1.801h.88v4.502H0v26.915L17.612 77h118v-7.247h23.776V77h108.68l-.535-.547 26.98-27.628.487.5V0h-.394v2.702h-2.638V0ZM295 53.42 271.974 77h5.414L295 59.335V53.42Zm-77.783 21.327h.88v1.801h-.88v-1.8Zm4.397-2.702h-2.638v4.503h2.638v-4.503Zm-7.915 0h2.638v4.503h-2.638v-4.503Z" fill="#FF003C"/><path d="M143.6 77.68c-.12.013-.227.02-.32.02h-1.78V80h-.72v-7h2.43c.64 0 1.117.203 1.43.61.32.407.48.94.48 1.6 0 .5-.053.943-.16 1.33-.1.38-.33.683-.69.91l.86 2.55h-.74l-.79-2.32Zm-.41-.68c.36 0 .627-.093.8-.28.173-.193.28-.41.32-.65.047-.247.07-.523.07-.83 0-1.027-.427-1.54-1.28-1.54h-1.6V77h1.69Zm3.165 2.33 2.46-3.71c.233-.353.35-.69.35-1.01 0-.3-.1-.543-.3-.73-.2-.187-.44-.28-.72-.28a.927.927 0 0 0-.62.23c-.18.147-.307.337-.38.57l-.65-.3c.126-.347.333-.633.62-.86.286-.227.64-.34 1.06-.34.333 0 .63.073.89.22.266.14.473.337.62.59.146.247.22.527.22.84 0 .453-.147.903-.44 1.35l-2.27 3.43h2.74V80h-3.58v-.67Zm5.024-.61c.313.453.726.68 1.24.68.273 0 .516-.063.73-.19.213-.127.376-.297.49-.51.12-.22.18-.457.18-.71 0-.267-.067-.507-.2-.72a1.36 1.36 0 0 0-.55-.51 1.611 1.611 0 0 0-.78-.19h-1.34l.38-3.57h2.66v.72h-2l-.23 2.15h.66c.386 0 .743.097 1.07.29.326.187.583.443.77.77.193.32.29.673.29 1.06s-.097.743-.29 1.07a2.115 2.115 0 0 1-.77.78c-.327.187-.684.28-1.07.28-.36 0-.697-.083-1.01-.25a2.122 2.122 0 0 1-.76-.7l.53-.45Z" fill="#fff"/></svg>
