<svg width="30" height="28" fill="none" xmlns="http://www.w3.org/2000/svg"><path fill-rule="evenodd" clip-rule="evenodd" d="M18.432 8.238H8c-.023 0-.046 0-.069-.002a3.652 3.652 0 1 1 .27-2.474h9.832a5.61 5.61 0 1 1 .399 2.476Zm2.069-2.11a3.13 3.13 0 1 1 6.26-.001 3.13 3.13 0 0 1-6.26 0ZM6.37 16.343c2.847 0 5.2 2.122 5.561 4.872h9.98A3.654 3.654 0 0 1 29 22.453a3.652 3.652 0 0 1-7.09 1.238H11.706a5.61 5.61 0 1 1-5.336-7.348Zm3.13 5.61a3.13 3.13 0 1 0-6.26 0 3.13 3.13 0 0 0 6.26 0Z" fill="#fff"/></svg>
