<svg width="24" height="24" fill="none" xmlns="http://www.w3.org/2000/svg"><path fill-rule="evenodd" clip-rule="evenodd" d="M12 24c6.627 0 12-5.373 12-12S18.627 0 12 0 0 5.373 0 12s5.373 12 12 12Zm1.906-17s1.642-.036 3.368 1.25c0 0 1.726 3.107 1.726 6.94 0 0-1.019 1.727-3.668 1.81 0 0-.431-.512-.791-.964 1.57-.44 2.17-1.417 2.17-1.417-.432.285-.894.52-1.379.702-.6.25-1.175.417-1.738.512a8.45 8.45 0 0 1-3.104-.012c-.684-.13-1.27-.321-1.762-.511a7.051 7.051 0 0 1-.93-.435c-.017-.009-.035-.018-.053-.03a.164.164 0 0 1-.048-.036 4.22 4.22 0 0 1-.336-.202s.576.953 2.098 1.405c-.36.452-.803.988-.803.988C6.006 16.917 5 15.19 5 15.19c0-3.833 1.726-6.94 1.726-6.94C8.452 6.964 10.094 7 10.094 7l.12.143c-2.158.619-3.152 1.56-3.152 1.56s.263-.143.707-.346c1.282-.56 2.301-.714 2.72-.75l.027-.004c.061-.01.115-.02.177-.02a9.818 9.818 0 0 1 6.03 1.119s-.947-.892-2.985-1.511l.168-.19V7Zm-5.37 5.762c0 .726.551 1.321 1.223 1.321.683 0 1.222-.595 1.222-1.321.012-.726-.54-1.322-1.223-1.322s-1.222.596-1.222 1.322Zm4.375 0c0 .726.551 1.321 1.223 1.321.683 0 1.222-.595 1.222-1.321s-.54-1.322-1.223-1.322-1.222.596-1.222 1.322Z" fill="#000"/></svg>
