<svg width="48" height="47" fill="none" xmlns="http://www.w3.org/2000/svg"><path opacity=".9" fill-rule="evenodd" clip-rule="evenodd" d="M19.253 4.743c4.001 2.61 7.381 4.82 7.511 4.913.21.15.504-.006 2.725-1.458l7.519-4.912C39.774 1.48 42.07 0 42.11 0c.04 0 .057 3.738.039 8.306l-.033 8.306 2.925-.844c1.609-.464 2.94-.826 2.959-.805.019.022-1.371 1.772-3.089 3.889s-3.111 3.863-3.097 3.88c.014.015 1.062-.27 2.328-.635 1.266-.365 2.347-.646 2.402-.625.056.022-1.281 1.744-2.971 3.828-1.69 2.084-3.072 3.825-3.072 3.869 0 .043 1.08-.236 2.401-.62 1.321-.384 2.416-.683 2.432-.664.029.033-11.839 14.694-12.844 15.868l-.454.53V27.897l2.058-2.869c1.132-1.578 2.293-3.194 2.58-3.59.649-.895.81-1.008-3.344 2.338l-3.142 2.531-.004 8.212-.003 8.212-1.585 1.675-1.585 1.675-.531-.564a472.48 472.48 0 0 0-1.604-1.686l-1.073-1.123v-16.41l-3.392-2.741c-1.865-1.508-3.408-2.726-3.428-2.706-.02.02 1.089 1.6 2.465 3.512l2.502 3.476-.03 8.186-.03 8.185-6.626-8.152c-3.643-4.484-6.616-8.164-6.606-8.178.01-.014 1.126.294 2.48.684 1.354.39 2.461.686 2.461.659 0-.028-1.403-1.774-3.12-3.88-1.715-2.107-3.078-3.848-3.028-3.87.049-.021 1.125.26 2.391.625s2.32.644 2.34.62c.02-.023-1.37-1.773-3.088-3.888-1.72-2.114-3.112-3.862-3.094-3.883.018-.021 1.297.325 2.841.77 1.545.445 2.86.822 2.925.838.076.019.11-2.787.098-8.263-.01-4.56.011-8.291.047-8.291.036 0 3.34 2.135 7.342 4.743Zm-4.958 5.332v3.576l1.592-1.829 1.593-1.829-.694-.811a50.15 50.15 0 0 0-1.592-1.748l-.899-.936v3.577Zm23.798-1.782-1.535 1.767 1.538 1.763c.846.97 1.576 1.763 1.623 1.763.047 0 .086-1.588.086-3.53 0-1.941-.04-3.53-.089-3.53-.048 0-.779.796-1.623 1.767Z" fill="#F8EE02"/><path opacity=".9" fill-rule="evenodd" clip-rule="evenodd" d="M13.252 4.743c4.002 2.61 7.382 4.82 7.512 4.913.21.15.504-.006 2.725-1.458l7.519-4.912C33.774 1.48 36.07 0 36.11 0c.04 0 .057 3.738.039 8.306l-.033 8.306 2.925-.844c1.609-.464 2.94-.826 2.959-.805.019.022-1.371 1.772-3.089 3.889s-3.111 3.863-3.097 3.88c.014.015 1.062-.27 2.328-.635 1.266-.365 2.347-.646 2.402-.625.056.022-1.281 1.744-2.971 3.828-1.69 2.084-3.072 3.825-3.072 3.869 0 .043 1.08-.236 2.401-.62 1.321-.384 2.416-.683 2.432-.664.029.033-11.839 14.694-12.844 15.868l-.454.53V27.897l2.058-2.869c1.132-1.578 2.293-3.194 2.58-3.59.649-.895.81-1.008-3.344 2.338l-3.142 2.531-.004 8.212-.003 8.212-1.585 1.675-1.585 1.675-.531-.564a472.48 472.48 0 0 0-1.604-1.686l-1.073-1.123v-16.41l-3.392-2.741c-1.865-1.508-3.408-2.726-3.428-2.706-.02.02 1.089 1.6 2.465 3.512l2.502 3.476-.03 8.186-.03 8.185-6.626-8.152c-3.644-4.484-6.616-8.164-6.606-8.178.01-.014 1.126.294 2.48.684 1.354.39 2.461.686 2.461.659 0-.028-1.403-1.774-3.12-3.88-1.715-2.107-3.078-3.848-3.028-3.87.049-.021 1.125.26 2.391.625s2.32.644 2.34.62c.02-.023-1.37-1.773-3.088-3.888C1.374 16.715-.018 14.967 0 14.946c.018-.021 1.297.325 2.841.77 1.545.445 2.86.822 2.925.838.076.019.11-2.787.098-8.263C5.854 3.731 5.875 0 5.91 0c.036 0 3.34 2.135 7.341 4.743Zm-4.957 5.332v3.576l1.592-1.829 1.592-1.829-.693-.811a50.16 50.16 0 0 0-1.592-1.748l-.9-.936v3.577Zm23.798-1.782-1.535 1.767 1.538 1.763c.846.97 1.576 1.763 1.623 1.763.047 0 .086-1.588.086-3.53 0-1.941-.04-3.53-.089-3.53-.048 0-.779.796-1.623 1.767Z" fill="#FF6F6F"/><path fill-rule="evenodd" clip-rule="evenodd" d="M16.253 4.743c4.001 2.61 7.381 4.82 7.511 4.913.21.15.504-.006 2.725-1.458l7.519-4.912C36.774 1.48 39.07 0 39.11 0c.04 0 .057 3.738.039 8.306l-.033 8.306 2.925-.844c1.609-.464 2.94-.826 2.959-.805.019.022-1.371 1.772-3.089 3.889s-3.111 3.863-3.097 3.88c.014.015 1.062-.27 2.328-.635 1.266-.365 2.347-.646 2.402-.625.056.022-1.281 1.744-2.971 3.828-1.69 2.084-3.072 3.825-3.072 3.869 0 .043 1.08-.236 2.401-.62 1.321-.384 2.416-.683 2.432-.664.029.033-11.839 14.694-12.844 15.868l-.454.53V27.897l2.058-2.869c1.132-1.578 2.293-3.194 2.58-3.59.649-.895.81-1.008-3.344 2.338l-3.142 2.531-.004 8.212-.003 8.212-1.585 1.675-1.585 1.675-.531-.564a472.48 472.48 0 0 0-1.604-1.686l-1.073-1.123v-16.41l-3.392-2.741c-1.865-1.508-3.408-2.726-3.428-2.706-.02.02 1.089 1.6 2.465 3.512l2.502 3.476-.03 8.186-.03 8.185-6.626-8.152c-3.644-4.484-6.616-8.164-6.606-8.178.01-.014 1.126.294 2.48.684 1.354.39 2.461.686 2.461.659 0-.028-1.403-1.774-3.12-3.88-1.715-2.107-3.078-3.848-3.028-3.87.049-.021 1.125.26 2.391.625s2.32.644 2.34.62c.02-.023-1.37-1.773-3.088-3.888-1.72-2.114-3.112-3.862-3.094-3.883.018-.021 1.297.325 2.841.77 1.545.445 2.86.822 2.925.838.076.019.11-2.787.098-8.263C8.854 3.731 8.875 0 8.91 0c.036 0 3.34 2.135 7.342 4.743Zm-4.958 5.332v3.576l1.592-1.829 1.592-1.829-.693-.811a50.15 50.15 0 0 0-1.592-1.748l-.899-.936v3.577Zm23.798-1.782-1.535 1.767 1.538 1.763c.846.97 1.576 1.763 1.623 1.763.047 0 .086-1.588.086-3.53 0-1.941-.04-3.53-.089-3.53-.048 0-.779.796-1.623 1.767Z" fill="#fff"/></svg>
