<svg width="1077" height="1040" fill="none" xmlns="http://www.w3.org/2000/svg"><path fill-rule="evenodd" clip-rule="evenodd" d="M467.366 30.334 532.275.364l142.289 65.697 185.271 31.946 38.6 71.418 60.329 27.855 35.638 149.701 81.698 151.151-30.15 65.384 18.15 76.227-119.579 143.76-61.67 133.755-63.805 17.096-50.088 60.217H594.311l-168.698 45.199-63.967-45.199h-66.055l-94.186-113.234-152.71-107.913-2.202-78.328L.453 639.743l39.79-167.144-4.321-153.825 51.064-42.519 18.801-78.975 170.691-78.81L396.913 18.186l70.453 12.148Zm8.684 1.497 56.225-25.959 123.251 56.907L476.05 31.83Zm-182.034 78.541 104.322-86.867 61.027 10.523-165.349 76.344Zm-14.846 12.361 188.879-87.207 205.017 35.35 221.762 102.391 94.863 175.513 50.999 214.212-100.434 217.82-124.038 149.123-222.565 59.636H363.234L204.828 877.634 51.443 693.228l-6.184-220.112 46.204-194.084L279.17 122.733Zm-17.539 8.098-151.544 69.97-16.692 70.116 168.236-140.086ZM85.053 284.37l-44.066 36.692 3.73 132.743L85.053 284.37ZM40.785 491.91 5.895 638.468l40.371 48.536-5.48-195.094ZM51.67 701.32l1.952 69.464 135.429 95.701L51.671 701.32Zm165.512 191.166 80.754 97.085h56.634l-137.388-97.085ZM370.31 994.571l56.274 39.769 148.409-39.769H370.31Zm242.661-5h153.643l44.064-52.975-197.707 52.975Zm211.616-61.878 54.705-14.658 52.875-114.68-107.58 129.338ZM952.61 765.96l106.05-127.492-16.1-67.601-89.95 195.093Zm91.47-210.32 26.43-57.331-71.634-132.534 45.204 189.865Zm-58.863-225.654-30.754-129.185-52.061-24.037 82.815 153.222Zm-94.355-164.058-34.271-63.406-164.488-28.363 198.759 91.769Z" fill="#F8EE02"/></svg>
