<svg width="1440" height="27" fill="none" xmlns="http://www.w3.org/2000/svg"><path fill="#FCEE0A" d="M0 0h1440v27H0z"/><path fill-rule="evenodd" clip-rule="evenodd" d="M1440 0H0v10.738h79.772l6.877-9.616.014.025.017-.025 11.976 17.996h9.691l5.74-8.256h208.411v-.003l68.202-.041 1.546-2.215-2.491-3.577h4.992l-2.501 3.577 1.574 2.259h2.882l6.789-9.74.009.012.005-.012L421.543 27l9.571-13.715 123.871-.041 2.168 3.107 6.487-9.31 4.327 6.203 55.697.04 5.428-7.787h25.225l9.494 13.62h3.757l23.435-.147 4.624 6.634 6.935-9.953 3.52-5.068h61.285l2.479-3.547-4.122-5.914h8.253l-4.131 5.914 2.473 3.547h109.203l6.877-9.461.014.025.017-.025 11.976 17.996h9.691l5.739-8.256h208.414v-.026l30.7-.018 1.55-2.215-2.49-3.577h4.99l-2.5 3.577 1.57 2.259h2.88l6.79-9.74.01.012.01-.012L1185.79 27l9.57-13.715 86.37-.041 2.17 3.107 6.49-9.31 4.33 6.203 55.69.04 5.43-7.787h25.23l9.49 13.62h3.76l23.43-.147 4.63 6.634 6.93-9.953 3.52-4.933h7.17V0ZM39.02 6.712h-3.897v-5.59h3.897v5.59Zm13 0h-1.298v-5.59h1.298v5.59Zm9.091 0h-1.298v-5.59h1.298v5.59Zm1.972 0h-1.301v-5.59h1.3v5.59Zm604.404 7.027h-1.3v-1.862h1.3v1.862Zm0-3.728h-1.3V8.15h1.3v1.862Zm10.077 3.728h-1.302V8.15h1.302v5.59Zm4.98 0h-1.301v-1.862h1.301v1.862ZM840.77 6.712h-3.897v-5.59h3.897v5.59Zm13 0h-1.298v-5.59h1.298v5.59Zm9.092 0h-1.298v-5.59h1.298v5.59Zm1.971 0h-1.301v-5.59h1.301v5.59Zm529.407 7.027h-1.3v-1.862h1.3v1.862Zm0-3.728h-1.3V8.15h1.3v1.862Zm10.07 3.728h-1.3V8.15h1.3v5.59Zm4.98 0h-1.3v-1.862h1.3v1.862Zm-849.059 7.015-3.078-4.403-3.07 4.403h6.148Zm207.116-10.141h4.992l-.02-.03h-4.952l-.02.03Zm519.633 10.141-3.08-4.403-3.07 4.403h6.15Z" fill="#121211"/></svg>
